<?xml version="1.0" encoding="UTF-8" standalone="no"?>

<svg
   width="119.69964mm"
   height="73.072945mm"
   viewBox="0 0 119.69964 73.072945"
   version="1.1"
   id="svg1"
   xmlns="http://www.w3.org/2000/svg"
   xmlns:svg="http://www.w3.org/2000/svg">
  <defs
     id="defs1">
    <filter
       style="color-interpolation-filters:sRGB"
       id="filter36"
       x="-0.14893179"
       y="-0.26914695"
       width="1.2978636"
       height="1.5382939">
      <feGaussianBlur
         stdDeviation="2.3"
         in="SourceAlpha"
         result="result0"
         id="feGaussianBlur33" />
      <feMorphology
         in="SourceAlpha"
         radius="6.5"
         result="result1"
         id="feMorphology33" />
      <feGaussianBlur
         stdDeviation="7"
         in="result1"
         id="feGaussianBlur34" />
      <feColorMatrix
         values="1 0 0 0 0 0 1 0 0 0 0 0 1 0 0 0 0 0 0.3 0"
         result="result91"
         id="feColorMatrix34" />
      <feComposite
         in="result0"
         operator="out"
         result="result2"
         in2="result91"
         id="feComposite34" />
      <feDiffuseLighting
         surfaceScale="10"
         id="feDiffuseLighting34">
        <feDistantLight
           azimuth="225"
           elevation="45"
           id="feDistantLight34" />
      </feDiffuseLighting>
      <feBlend
         in2="SourceGraphic"
         mode="multiply"
         id="feBlend34" />
      <feComposite
         in2="SourceAlpha"
         operator="in"
         result="result3"
         id="feComposite35" />
      <feGaussianBlur
         stdDeviation="1"
         in="result3"
         result="result4"
         id="feGaussianBlur35" />
      <feComposite
         in2="result3"
         operator="atop"
         id="feComposite36" />
    </filter>
  </defs>
  <g
     id="layer1"
     transform="translate(11.636789,-19.945452)">
    <g
       id="text2"
       style="opacity:1;fill:#800080;filter:url(#filter36)"
       transform="matrix(0.75388109,0,0,0.70171115,-0.92543464,29.356384)">
      <path
         style="font-size:97.921px;line-height:1.75;font-family:'Savoye LET';-inkscape-font-specification:'Savoye LET';baseline-shift:baseline;display:inline;overflow:visible;vector-effect:none;fill:#800080;enable-background:accumulate;stop-color:#000000;stop-opacity:1"
         d="M 64.507235,48.410178 59.965001,69.591331 H 56.90497 q -1.76908,-5.641932 -5.689745,-10.949174 -3.872852,-5.307241 -8.79759,-8.749776 -3.251283,5.068176 -7.267574,9.084467 -4.016291,4.016291 -8.558525,6.88507 -4.49442,2.86878 -9.371345,4.446608 -4.876925,1.577829 -9.5625975,1.577829 -1.2909506,0 -2.7731532,-0.239065 l 1.5300156,-3.633787 q 2.5340883,0.286878 3.8250391,0.286878 13.100758,0 23.332738,-10.231979 2.103771,-2.103772 4.255355,-4.829112 2.199398,-2.773153 4.542234,-6.454753 5.211616,-8.176021 8.893216,-15.300156 l 4.494421,-8.654151 q 5.307241,-10.184166 8.17602,-13.7701402 2.86878,-3.633787 5.689746,-3.633787 0.908447,0 1.577828,0.3825039 0.717195,0.3825039 1.099699,1.1475117 0.382504,0.7171948 0.382504,1.6256415 0,0.6693818 -0.239065,1.9603321 -0.239065,1.721268 -0.286878,1.864707 l -7.315387,34.377538 h 3.394722 l -0.334691,1.625641 z m -4.494421,0 H 43.326082 l 0.191252,0.143439 q 4.255356,3.251283 7.315387,6.693818 3.060031,3.442535 5.976623,8.223834 z M 44.617033,46.784537 h 15.730472 l 6.789444,-32.512832 q 0.334691,-1.577828 0.334691,-1.625641 0.286878,-0.95626 0.286878,-1.721268 0,-1.1953244 -1.051885,-1.1953244 -1.290951,0 -3.107845,2.7253404 -1.816893,2.72534 -6.311314,11.188239 -0.669382,1.290951 -2.72534,5.211615 -1.721268,3.107845 -1.864707,3.442536 l -4.590046,8.367272 q -2.86878,5.211616 -3.490348,6.120063 z m 26.775272,9.227906 q 4.111917,-4.972551 5.498494,-9.275719 -3.872852,-2.151585 -3.872852,-6.167876 0,-1.912519 0.908447,-3.107844 0.908447,-1.195325 2.295023,-1.195325 1.43439,0 2.342837,1.338764 0.908446,1.290951 0.908446,3.394722 0,1.482203 -0.525943,3.299096 1.290951,0.334691 2.342837,0.334691 2.964405,0 4.876925,-1.721267 h 2.295023 l -0.334691,0.669381 q -3.442535,6.311315 -5.689745,12.431377 -2.199398,6.07225 -2.199398,9.084468 0,1.099698 0.573756,1.864706 0.573756,0.717195 1.386577,0.717195 1.960332,0 6.311314,-4.15973 l 0.765008,0.860634 q -1.338764,1.482202 -4.15973,3.6816 -2.534089,2.008145 -4.733486,2.008145 -1.864706,0 -2.964405,-1.243137 -1.051886,-1.243138 -1.051886,-3.394722 0,-3.585974 2.773153,-9.084468 1.004073,-2.055958 2.581902,-4.685673 1.577828,-2.629714 3.968478,-6.263501 l 0.47813,-0.669382 q -1.577829,1.43439 -3.060032,2.055959 -1.434389,0.573755 -3.299096,0.573755 -0.860634,0 -1.816893,-0.239064 -1.530016,4.685672 -5.737559,9.658223 z m 6.55038,-12.144499 q 0.191252,-1.195324 0.191252,-2.008145 0,-1.673455 -0.573756,-2.629714 -0.525943,-0.95626 -1.386577,-0.95626 -0.47813,0 -0.860634,0.47813 -0.33469,0.430317 -0.33469,1.099698 0,2.247211 2.964405,4.016291 z m 23.763055,0.191252 -3.633789,15.921725 q -0.573755,2.629714 -0.573755,3.729413 0,1.721268 0.81282,2.773153 0.812821,1.051886 2.151584,1.051886 1.29095,0 2.34284,-0.717195 1.0997,-0.765008 3.29909,-3.107844 l 0.57376,-0.573756 0.71719,0.717195 q -2.82096,3.442535 -4.73348,4.876925 -1.86471,1.386576 -3.681602,1.386576 -2.295023,0 -3.6816,-1.482202 -1.338764,-1.530016 -1.338764,-3.968478 0,-1.816894 0.717195,-5.259429 l 3.107844,-15.347969 h -4.590046 l 0.334691,-1.625641 h 4.590046 l 2.677526,-12.909507 4.59005,-1.816893 -3.34691,14.7264 h 7.7457 l -0.33469,1.625641 z m 20.9899,25.532135 H 108.1605 l 0.23906,-1.243137 h 1.33876 q 2.34284,0 3.25129,-0.717195 0.90844,-0.765008 1.33876,-2.964405 l 0.38251,-1.769081 4.11191,-19.985828 0.28688,-1.673455 q 0.28688,-1.243138 0.28688,-1.912519 0,-1.243138 -1.00407,-1.243138 -0.76501,0 -2.24721,0.765008 l -3.96848,2.151584 -0.23907,-1.051886 0.90845,-0.669381 5.35505,-3.729413 q 3.53816,-2.486276 6.07225,-4.542234 h 1.24314 q -1.19532,3.920665 -2.72534,11.475117 l -4.20754,20.416145 q -0.47813,2.486276 -0.47813,3.490348 0,1.195325 0.57375,1.577829 0.62157,0.382504 2.53409,0.382504 h 1.72127 z"
         id="path2" />
      <path
         style="font-size:97.921px;line-height:1.75;font-family:'Savoye LET';-inkscape-font-specification:'Savoye LET';baseline-shift:baseline;display:inline;overflow:visible;vector-effect:none;fill:#800080;enable-background:accumulate;stop-color:#000000;stop-opacity:1"
         d="m 69.623047,4.8085937 c -2.145493,0 -4.200379,1.3694387 -6.173828,3.8691407 -1.974384,2.4687926 -4.693988,7.0659746 -8.238282,13.8671876 l -4.496093,8.65625 c -2.444085,4.729463 -5.399085,9.814233 -8.865235,15.251953 -1.552614,2.439823 -3.055914,4.574153 -4.505859,6.402344 v 0.002 c -1.421635,1.800737 -2.824343,3.392701 -4.207031,4.77539 -6.728246,6.728246 -14.323229,10.050782 -22.896485,10.050782 -0.8149431,0 -2.0781002,-0.09327 -3.755859,-0.283203 l -0.4589844,-0.05078 -2.0136719,4.78125 0.7753907,0.125 c 1.0159269,0.16386 1.9723847,0.248047 2.8710937,0.248047 3.1930169,0 6.4456239,-0.53968 9.7519529,-1.609375 3.302124,-1.068333 6.473824,-2.572802 9.511719,-4.511719 3.068638,-1.938086 5.956246,-4.262887 8.664062,-6.970703 2.552334,-2.552333 4.85456,-5.445034 6.945313,-8.621093 3.025997,2.19761 5.769505,4.903971 8.185547,8.214843 l 0.002,0.002 c 2.578053,3.489804 4.440671,7.077733 5.597656,10.767579 l 0.134766,0.433593 h 4.011719 l 4.541015,-21.18164 h 3.400391 l 0.589844,-2.859375 h -3.390625 l 7.15625,-33.632813 -0.01758,0.06641 c 0.0421,-0.126311 0.04121,-0.160024 0.05859,-0.257813 0.01739,-0.09779 0.03817,-0.222726 0.0625,-0.380859 0.04766,-0.309794 0.109861,-0.750257 0.1875,-1.308594 0.162853,-0.8794027 0.25,-1.5525802 0.25,-2.0722657 0,-0.6887041 -0.150355,-1.3348323 -0.453125,-1.9062501 C 72.54376,6.0704616 72.082285,5.5847337 71.5,5.2714844 70.95092,4.9595177 70.312378,4.8085937 69.623047,4.8085937 Z m 0,1.234375 c 0.51906,10e-8 0.929594,0.1054152 1.271484,0.3007813 l 0.0078,0.00586 0.0078,0.00391 C 71.277804,6.5495941 71.54557,6.8235618 71.75,7.2324219 l 0.002,0.00781 0.0039,0.00586 c 0.204114,0.382713 0.310547,0.8168777 0.310547,1.3359376 0,0.3728235 -0.07261,1.0057917 -0.228515,1.8476565 l -0.002,0.01367 -0.002,0.01367 c -0.07946,0.572138 -0.144436,1.013057 -0.191406,1.31836 -0.02348,0.152651 -0.04215,0.272006 -0.05664,0.353515 -0.01449,0.08151 -0.03984,0.162482 -0.01367,0.08399 l -0.01172,0.03125 -7.480469,35.15625 h 3.400391 l -0.08203,0.392578 h -3.390625 l -4.541015,21.18164 H 57.314453 C 56.105441,65.298287 54.259938,61.72784 51.712891,58.279297 l -0.002,-0.0039 C 49.093658,54.689551 46.113266,51.722759 42.771438,49.386725 L 42.244095,49.019537 41.898391,49.5586 c -2.145178,3.343954 -4.538951,6.337779 -7.183593,8.982422 -2.647239,2.647238 -5.465451,4.911876 -8.453125,6.798828 v 0.002 h -0.002 c -2.954221,1.885673 -6.028602,3.34364 -9.228516,4.378906 -3.196237,1.034077 -6.3185,1.548828 -9.3730469,1.548828 -0.5770034,0 -1.2319792,-0.08623 -1.8769531,-0.162109 l 1.0292969,-2.445313 c 1.4113701,0.1497 2.6315476,0.25586 3.4296871,0.25586 8.894422,0 16.853184,-3.499669 23.767578,-10.414063 1.421737,-1.421737 2.856215,-3.04876 4.302735,-4.880859 l 0.002,-0.002 c 1.222759,-1.541877 2.494639,-3.417596 3.777344,-5.367188 l 1.05664,0.792969 c 2.808094,2.14592 5.215984,4.351625 7.22461,6.611328 2.010464,2.261772 3.983384,4.972921 5.912109,8.134766 l 0.806641,1.322265 3.685547,-17.322265 H 42.414062 c 0.162592,-0.250538 0.312986,-0.420685 0.476563,-0.677735 3.482341,-5.463121 6.455344,-10.576707 8.919922,-15.345703 v -0.002 l 4.49414,-8.652344 C 59.835511,16.33983 62.565524,11.758386 64.416016,9.4452715 v -0.00195 l 0.002,-0.00195 c 1.85159,-2.3453474 3.589283,-3.3984376 5.205078,-3.3984376 z m -2.916016,3.0703126 c -0.647346,0 -1.24844,0.3239331 -1.830078,0.8339843 -0.581637,0.5100514 -1.166684,1.2295184 -1.791016,2.1660154 -1.244507,1.866762 -3.344184,5.592117 -6.34375,11.240235 v 0.002 l -0.002,0.0039 c -0.444924,0.858069 -1.354115,2.595484 -2.724609,5.208984 -0.57002,1.029268 -1.011405,1.832354 -1.322266,2.40625 -0.312449,0.57683 -0.474889,0.875653 -0.5625,1.080078 L 52.15625,32 47.566406,40.367187 c -1.910746,3.471188 -3.105285,5.551414 -3.458984,6.06836 l -0.660156,0.964844 h 17.402343 l 6.890625,-33 v -0.002 c 0.111434,-0.525343 0.195778,-0.924413 0.251953,-1.197266 0.02813,-0.13664 0.04969,-0.242438 0.06445,-0.318359 0.0074,-0.03796 0.01289,-0.06695 0.01758,-0.09375 0.0028,-0.01615 0.0045,-0.06295 0.0078,-0.08594 C 68.261828,12.071597 68.375,11.473544 68.375,10.923828 68.375,10.43492 68.269026,9.9734136 67.958984,9.6210938 67.648943,9.2687739 67.174482,9.1132812 66.707031,9.1132813 Z m 0,1.2324217 c 0.233807,0 0.285585,0.04372 0.326172,0.08984 0.04059,0.04612 0.109375,0.180307 0.109375,0.488281 0,0.432903 -0.08348,0.950777 -0.261719,1.544922 l -0.02539,0.08594 v 0.04297 c -0.0026,0.0141 -0.0052,0.02704 -0.0098,0.05078 -0.01313,0.06752 -0.03485,0.168434 -0.0625,0.302734 -0.0553,0.2686 -0.138567,0.668035 -0.25,1.193359 l -6.6875,32.023438 H 45.677734 c 0.576757,-0.93357 1.355777,-2.271296 2.970703,-5.205078 v -0.002 l 4.603516,-8.392578 0.01172,-0.02734 c 0.008,-0.0187 0.204552,-0.407834 0.513672,-0.978516 0.309119,-0.570682 0.750977,-1.373183 1.324218,-2.408203 l 0.0039,-0.0078 0.0039,-0.0059 c 1.370783,-2.614052 2.278978,-4.349691 2.726562,-5.212891 l -0.0039,0.0039 c 2.992996,-5.635748 5.10128,-9.367741 6.279297,-11.134766 0.586931,-0.880396 1.125767,-1.523479 1.580078,-1.921875 0.454311,-0.398396 0.802337,-0.529297 1.015625,-0.529297 z m 39.541019,16.357422 -5.98633,2.369141 -2.644533,12.74414 H 93.027344 L 92.4375,44.675781 h 4.591797 L 94.074219,59.28125 c -0.482549,2.316235 -0.730469,4.092342 -0.730469,5.384766 0,1.738523 0.490789,3.232776 1.490234,4.375 l 0.0078,0.0078 0.0059,0.0078 c 1.040371,1.112119 2.47001,1.677734 4.132813,1.677734 1.368173,0 2.728713,-0.526189 4.048833,-1.507813 l 0.002,-0.002 c 1.34805,-1.011033 2.94446,-2.665073 4.8418,-4.980468 l 0.35351,-0.431641 -1.54883,-1.548828 -1.01562,1.017578 -0.008,0.0078 c -1.45226,1.546973 -2.54789,2.567144 -3.19727,3.019532 -0.60422,0.411967 -1.24773,0.609375 -1.99414,0.609375 -0.730962,0 -1.222367,-0.240892 -1.664064,-0.8125 -0.442347,-0.572449 -0.683594,-1.344111 -0.683594,-2.394532 0,-0.624864 0.181138,-1.860495 0.558594,-3.591796 l 3.523444,-15.44336 h 7.75781 l 0.58789,-2.859375 h -7.72852 z m -1.72266,2.009766 -3.25781,14.33789 h 7.76172 l -0.0801,0.390625 h -7.73633 l -3.742187,16.404297 -0.002,0.0039 c -0.386321,1.770638 -0.587891,3.020923 -0.587891,3.861328 0,1.244604 0.299993,2.320327 0.941407,3.150391 0.642064,0.830907 1.586568,1.291016 2.640621,1.291016 0.97486,0 1.89116,-0.279927 2.68945,-0.824219 l 0.004,-0.002 0.002,-0.002 c 0.0456,-0.03169 0.14213,-0.143057 0.18946,-0.177735 -0.3112,0.278263 -0.78218,0.883999 -1.05664,1.089844 C 101.12543,69.102684 100.03436,69.5 98.980469,69.5 c -1.393213,0 -2.415335,-0.422114 -3.222657,-1.28125 -0.780625,-0.896552 -1.18164,-2.044794 -1.18164,-3.552734 0,-1.130103 0.231367,-2.859001 0.705078,-5.132813 v -0.002 l 3.257812,-16.089844 h -4.585937 l 0.08008,-0.390625 h 4.587891 l 2.712884,-13.076172 z m 19.5293,1.675781 -0.16992,0.138672 c -1.6748,1.358791 -3.68905,2.864264 -6.03907,4.515625 h 0.004 l -5.36328,3.734375 -1.24024,0.912109 0.50977,2.240234 4.67383,-2.533203 c 0.94844,-0.489235 1.65876,-0.697265 1.96289,-0.697265 0.20741,0 0.23239,0.03121 0.27344,0.08203 0.041,0.05082 0.11328,0.213576 0.11328,0.544922 0,0.358136 -0.0857,0.968315 -0.27149,1.773437 l -0.004,0.01758 -0.28711,1.679688 -4.10938,19.972656 -0.38281,1.773438 -0.002,0.0059 c -0.27251,1.392787 -0.70722,2.243298 -1.125,2.599609 -0.40568,0.316895 -1.36552,0.582032 -2.85938,0.582032 h -1.84765 l -0.47657,2.478515 h 15.79102 l 0.47656,-2.478515 h -2.46875 c -1.22518,0 -2.01384,-0.181742 -2.19531,-0.289063 -0.13483,-0.09362 -0.29492,-0.362333 -0.29492,-1.052734 0,-0.570131 0.15051,-1.730914 0.46484,-3.367188 l 0.002,-0.0078 4.20703,-20.408203 v -0.002 c 1.01794,-5.02602 1.92488,-8.839677 2.71094,-11.417969 l 0.24219,-0.796875 z m 0.42187,1.234375 h 0.25977 c -0.7651,2.619064 -1.59736,6.038458 -2.54883,10.736328 l -4.20898,20.417969 v 0.0039 c -0.32167,1.672639 -0.49024,2.840133 -0.49024,3.607422 0,0.895573 0.22037,1.670344 0.84961,2.089844 l 0.008,0.0059 0.01,0.0059 c 0.65487,0.402996 1.54129,0.47461 2.85742,0.47461 h 0.97461 l -0.002,0.0098 h -13.2793 l 0.002,-0.0098 h 0.83008 c 1.62484,0 2.82477,-0.211683 3.63281,-0.84961 l 0.008,-0.0059 0.008,-0.0059 c 0.7917,-0.6667 1.24688,-1.78505 1.54687,-3.31836 l 0.38086,-1.759765 4.11524,-20 0.28125,-1.648438 v -0.0059 c 0.19565,-0.848964 0.30273,-1.512044 0.30273,-2.044922 0,-0.497413 -0.095,-0.956753 -0.38867,-1.320313 -0.29364,-0.363559 -0.77045,-0.541015 -1.23242,-0.541015 -0.71561,0 -1.50273,0.304142 -2.5293,0.833984 l -0.006,0.0039 -2.40039,1.300782 5.09766,-3.548829 0.002,-0.002 c 2.29561,-1.613135 4.24821,-3.080991 5.91992,-4.429687 z m -48.255857,4.02539 c -1.101631,0 -2.088048,0.522205 -2.785156,1.439454 -0.701525,0.923059 -1.035156,2.107792 -1.035156,3.480468 0,2.68831 1.328201,4.861152 3.720703,6.373047 -0.928396,2.663051 -2.620562,5.552272 -5.205078,8.677735 l -0.378907,0.458984 1.779297,1.580078 0.408203,-0.482422 c 2.70475,-3.196523 4.548337,-6.320152 5.632813,-9.390625 0.492033,0.09317 0.983935,0.189453 1.449219,0.189453 1.306401,0 2.487461,-0.200453 3.529296,-0.617187 l 0.0039,-0.002 0.0059,-0.002 c 0.215454,-0.09035 0.434674,-0.322862 0.650391,-0.435547 -1.012181,1.570723 -2.059575,3.183926 -2.804688,4.425781 -1.057299,1.762166 -1.924124,3.335955 -2.603515,4.726562 -1.873048,3.713802 -2.839844,6.811677 -2.839844,9.361329 0,1.534908 0.382662,2.830255 1.197265,3.792968 l 0.0059,0.0059 0.0039,0.0039 c 0.847769,0.958347 2.045573,1.451172 3.425781,1.451172 1.652812,0 3.357138,-0.747871 5.113282,-2.138672 l 0.0039,-0.002 c 1.894174,-1.477029 3.299836,-2.717286 4.234375,-3.751953 l 0.371094,-0.410157 -1.558594,-1.751953 -0.460938,0.441407 c -1.433604,1.370589 -2.665085,2.38979 -3.667968,3.050781 -1.002884,0.660991 -1.78345,0.939453 -2.21875,0.939453 -0.357398,0 -0.605953,-0.122548 -0.896485,-0.482422 -0.292762,-0.394567 -0.445312,-0.861516 -0.445312,-1.482422 0,-1.85802 0.706966,-4.857539 2.162109,-8.875 1.486526,-4.048021 3.368924,-8.163013 5.650391,-12.345703 l 0.0059,-0.0098 0.785156,-1.572265 H 85.92979 l -0.175781,0.158203 c -1.157227,1.041504 -2.607958,1.5625 -4.464844,1.5625 -0.476897,0 -1.058748,-0.117797 -1.640625,-0.236328 0.23418,-0.972852 0.441304,-1.92943 0.441304,-2.779156 0,-1.489543 -0.324843,-2.757005 -1.019532,-3.746094 -0.690258,-1.014337 -1.703286,-1.605468 -2.849609,-1.605469 z m 0,1.234375 c 0.764361,0 1.313049,0.300665 1.833984,1.06836 l 0.002,0.0039 0.0039,0.0039 c 0.514878,0.731671 0.794922,1.727287 0.794922,3.041016 0,0.226961 -0.104724,0.532638 -0.125,0.775391 -0.01096,-1.136616 -0.191597,-2.101438 -0.638672,-2.851563 -0.419932,-0.754977 -1.120237,-1.267578 -1.917969,-1.267578 -0.52436,0 -1.008476,0.294287 -1.341797,0.710937 l -0.0039,0.002 -0.002,0.0039 c -0.318285,0.409224 -0.464844,0.929458 -0.464844,1.478515 0,1.769367 1.190662,3.308591 3.265625,4.546875 l 0.552734,0.330079 -0.002,0.0078 0.0293,0.0078 0.201172,0.11914 0.0098,-0.06445 0.373047,0.0957 c 0.90003,0.233341 1.731369,0.355469 2.498046,0.355469 1.977976,0 3.665908,-0.604079 5.023438,-1.720703 h 1.150391 c -2.248247,4.147275 -4.12511,8.239867 -5.605469,12.271484 v 0.002 c -1.477387,4.078873 -2.236328,7.136651 -2.236328,9.294922 0,0.840405 0.22964,1.610875 0.697265,2.234375 l 0.0059,0.0078 0.0059,0.0078 c 0.471264,0.589081 1.143889,0.947266 1.867188,0.947266 0.871587,0 1.797549,-0.41504 2.898437,-1.140625 0.547217,-0.360666 1.273444,-1.058814 1.908203,-1.585938 -0.725511,0.654166 -1.230866,1.197576 -2.267578,2.00586 l -0.002,0.002 -0.002,0.002 c -1.621313,1.284813 -3.073026,1.875 -4.351563,1.875 -1.103783,0 -1.88017,-0.33502 -2.498047,-1.03125 -0.585142,-0.694434 -0.90039,-1.659642 -0.90039,-2.990234 0,-2.231647 0.882541,-5.189117 2.707031,-8.806641 l 0.002,-0.0039 v -0.0039 c 0.65898,-1.349339 1.511543,-2.896842 2.556641,-4.638671 1.042293,-1.737155 2.357815,-3.815104 3.941406,-6.222657 l 0.01172,-0.01563 c 9.35e-4,-0.0014 0.001,-0.0025 0.002,-0.0039 l 0.464844,-0.648437 -0.916016,-0.816407 c -1.011985,0.919987 -1.978006,1.560097 -2.880859,1.939453 -0.86962,0.347011 -1.886765,0.53125 -3.064453,0.53125 -0.516644,0 -1.07075,-0.07189 -1.666016,-0.220703 l -0.558594,-0.140625 -0.0098,0.0293 -0.382813,-0.21289 c -2.439472,-1.355263 -3.554687,-3.149643 -3.554687,-5.628907 0,-1.177349 0.273465,-2.063667 0.783203,-2.734375 0.514154,-0.676518 1.055597,-0.951172 1.802734,-0.951172 z m -0.04687,2.007813 c 0.345304,0 0.563541,0.123696 0.845703,0.636719 l 0.0059,0.0098 0.0059,0.0098 c 0.300833,0.501387 0.486328,1.267357 0.486328,2.3125 0,0.205368 -0.05521,0.539245 -0.07617,0.794922 -1.160633,-0.90392 -1.845703,-1.821966 -1.845703,-2.802735 0,-0.342589 0.07769,-0.554387 0.205078,-0.71875 0.171272,-0.211468 0.261664,-0.242187 0.373047,-0.242187 z M 44.945312,49.027344 h 14.306641 l -2.759766,12.96289 c -1.699146,-2.658445 -3.418528,-5.149067 -5.199218,-7.152343 -1.77587,-1.997854 -3.987799,-3.916805 -6.347657,-5.810547 z"
         id="path3" />
    </g>
  </g>
</svg>
